<mxfile host="app.diagrams.net" modified="2023-02-09T00:46:10.479Z" agent="5.0 (Windows NT 10.0; Win64; x64) AppleWebKit/537.36 (KHTML, like Gecko) Chrome/109.0.0.0 Safari/537.36" etag="-bL16lxEA2koDcg7rxfp" version="20.8.18" type="github">
  <diagram id="qAC-2gUao3_XOrqV8QIQ" name="第 1 页">
    <mxGraphModel dx="1050" dy="541" grid="1" gridSize="10" guides="1" tooltips="1" connect="1" arrows="1" fold="1" page="1" pageScale="1" pageWidth="1654" pageHeight="1169" math="0" shadow="0">
      <root>
        <mxCell id="0" />
        <mxCell id="1" parent="0" />
        <mxCell id="j8gw7dnLNOPa8KJu4PWc-7" style="rounded=0;orthogonalLoop=1;jettySize=auto;html=1;entryX=0.214;entryY=0.02;entryDx=0;entryDy=0;entryPerimeter=0;endArrow=oval;endFill=1;" parent="1" target="j8gw7dnLNOPa8KJu4PWc-6" edge="1">
          <mxGeometry relative="1" as="geometry">
            <mxPoint x="600" y="270" as="sourcePoint" />
          </mxGeometry>
        </mxCell>
        <mxCell id="j8gw7dnLNOPa8KJu4PWc-1" value="Internet" style="shape=mxgraph.cisco.storage.cloud;html=1;dashed=0;strokeColor=#23445D;fillColor=#ffffff;strokeWidth=2;fontFamily=Helvetica;fontSize=24;fontColor=#23445D;align=center;fontStyle=1" parent="1" vertex="1">
          <mxGeometry x="510" y="170" width="186" height="106" as="geometry" />
        </mxCell>
        <mxCell id="BBU3DSzOWEY-UXr2ZPLk-48" style="edgeStyle=orthogonalEdgeStyle;rounded=0;orthogonalLoop=1;jettySize=auto;html=1;exitX=0.5;exitY=0.98;exitDx=0;exitDy=0;exitPerimeter=0;entryX=0.5;entryY=0;entryDx=0;entryDy=0;entryPerimeter=0;strokeColor=#121212;endArrow=oval;endFill=1;" parent="1" source="j8gw7dnLNOPa8KJu4PWc-2" target="BBU3DSzOWEY-UXr2ZPLk-43" edge="1">
          <mxGeometry relative="1" as="geometry" />
        </mxCell>
        <mxCell id="j8gw7dnLNOPa8KJu4PWc-2" value="" style="shape=mxgraph.cisco.switches.workgroup_switch;sketch=0;html=1;pointerEvents=1;dashed=0;fillColor=#036897;strokeColor=#ffffff;strokeWidth=2;verticalLabelPosition=bottom;verticalAlign=top;align=center;outlineConnect=0;" parent="1" vertex="1">
          <mxGeometry x="200" y="580" width="90" height="40" as="geometry" />
        </mxCell>
        <mxCell id="j8gw7dnLNOPa8KJu4PWc-13" style="edgeStyle=orthogonalEdgeStyle;rounded=0;orthogonalLoop=1;jettySize=auto;html=1;exitX=0.5;exitY=1;exitDx=0;exitDy=0;exitPerimeter=0;entryX=0.5;entryY=0;entryDx=0;entryDy=0;entryPerimeter=0;endArrow=oval;endFill=1;" parent="1" source="j8gw7dnLNOPa8KJu4PWc-3" target="j8gw7dnLNOPa8KJu4PWc-2" edge="1">
          <mxGeometry relative="1" as="geometry" />
        </mxCell>
        <mxCell id="BBU3DSzOWEY-UXr2ZPLk-32" style="edgeStyle=orthogonalEdgeStyle;rounded=0;orthogonalLoop=1;jettySize=auto;html=1;exitX=0.5;exitY=1;exitDx=0;exitDy=0;exitPerimeter=0;endArrow=oval;endFill=1;entryX=0.156;entryY=-0.013;entryDx=0;entryDy=0;entryPerimeter=0;" parent="1" source="j8gw7dnLNOPa8KJu4PWc-3" target="BBU3DSzOWEY-UXr2ZPLk-63" edge="1">
          <mxGeometry relative="1" as="geometry">
            <mxPoint x="1121" y="545" as="targetPoint" />
            <Array as="points">
              <mxPoint x="621" y="512" />
              <mxPoint x="1120" y="512" />
              <mxPoint x="1120" y="545" />
              <mxPoint x="1121" y="545" />
            </Array>
          </mxGeometry>
        </mxCell>
        <mxCell id="BBU3DSzOWEY-UXr2ZPLk-33" style="edgeStyle=orthogonalEdgeStyle;rounded=0;orthogonalLoop=1;jettySize=auto;html=1;exitX=0.5;exitY=1;exitDx=0;exitDy=0;exitPerimeter=0;entryX=0.82;entryY=0.016;entryDx=0;entryDy=0;entryPerimeter=0;endArrow=oval;endFill=1;" parent="1" source="j8gw7dnLNOPa8KJu4PWc-3" target="BBU3DSzOWEY-UXr2ZPLk-63" edge="1">
          <mxGeometry relative="1" as="geometry">
            <mxPoint x="1291.674" y="542.16" as="targetPoint" />
            <Array as="points">
              <mxPoint x="621" y="510" />
              <mxPoint x="1293" y="510" />
            </Array>
          </mxGeometry>
        </mxCell>
        <mxCell id="BBU3DSzOWEY-UXr2ZPLk-50" style="edgeStyle=orthogonalEdgeStyle;rounded=0;orthogonalLoop=1;jettySize=auto;html=1;exitX=0.5;exitY=1;exitDx=0;exitDy=0;exitPerimeter=0;entryX=0.5;entryY=0;entryDx=0;entryDy=0;entryPerimeter=0;strokeColor=#121212;endArrow=oval;endFill=1;" parent="1" source="j8gw7dnLNOPa8KJu4PWc-3" target="BBU3DSzOWEY-UXr2ZPLk-49" edge="1">
          <mxGeometry relative="1" as="geometry" />
        </mxCell>
        <mxCell id="BBU3DSzOWEY-UXr2ZPLk-52" style="edgeStyle=orthogonalEdgeStyle;rounded=0;orthogonalLoop=1;jettySize=auto;html=1;exitX=0.5;exitY=1;exitDx=0;exitDy=0;exitPerimeter=0;strokeColor=#121212;endArrow=oval;endFill=1;" parent="1" source="j8gw7dnLNOPa8KJu4PWc-3" target="BBU3DSzOWEY-UXr2ZPLk-51" edge="1">
          <mxGeometry relative="1" as="geometry" />
        </mxCell>
        <mxCell id="BBU3DSzOWEY-UXr2ZPLk-54" style="edgeStyle=orthogonalEdgeStyle;rounded=0;orthogonalLoop=1;jettySize=auto;html=1;exitX=0.5;exitY=1;exitDx=0;exitDy=0;exitPerimeter=0;entryX=0.5;entryY=0;entryDx=0;entryDy=0;entryPerimeter=0;strokeColor=#121212;endArrow=oval;endFill=1;" parent="1" source="j8gw7dnLNOPa8KJu4PWc-3" target="BBU3DSzOWEY-UXr2ZPLk-53" edge="1">
          <mxGeometry relative="1" as="geometry" />
        </mxCell>
        <mxCell id="BBU3DSzOWEY-UXr2ZPLk-56" style="edgeStyle=orthogonalEdgeStyle;rounded=0;orthogonalLoop=1;jettySize=auto;html=1;exitX=0.5;exitY=1;exitDx=0;exitDy=0;exitPerimeter=0;strokeColor=#121212;endArrow=oval;endFill=1;" parent="1" source="j8gw7dnLNOPa8KJu4PWc-3" target="BBU3DSzOWEY-UXr2ZPLk-55" edge="1">
          <mxGeometry relative="1" as="geometry" />
        </mxCell>
        <mxCell id="BBU3DSzOWEY-UXr2ZPLk-58" style="edgeStyle=orthogonalEdgeStyle;rounded=0;orthogonalLoop=1;jettySize=auto;html=1;exitX=0.5;exitY=1;exitDx=0;exitDy=0;exitPerimeter=0;strokeColor=#121212;endArrow=oval;endFill=1;" parent="1" source="j8gw7dnLNOPa8KJu4PWc-3" target="BBU3DSzOWEY-UXr2ZPLk-57" edge="1">
          <mxGeometry relative="1" as="geometry" />
        </mxCell>
        <mxCell id="BBU3DSzOWEY-UXr2ZPLk-61" style="edgeStyle=orthogonalEdgeStyle;rounded=0;orthogonalLoop=1;jettySize=auto;html=1;exitX=0.5;exitY=1;exitDx=0;exitDy=0;exitPerimeter=0;entryX=0.244;entryY=0;entryDx=0;entryDy=0;entryPerimeter=0;strokeColor=#121212;endArrow=oval;endFill=1;" parent="1" source="j8gw7dnLNOPa8KJu4PWc-3" target="BBU3DSzOWEY-UXr2ZPLk-60" edge="1">
          <mxGeometry relative="1" as="geometry" />
        </mxCell>
        <mxCell id="BBU3DSzOWEY-UXr2ZPLk-62" style="edgeStyle=orthogonalEdgeStyle;rounded=0;orthogonalLoop=1;jettySize=auto;html=1;exitX=0.5;exitY=1;exitDx=0;exitDy=0;exitPerimeter=0;strokeColor=#121212;endArrow=oval;endFill=1;" parent="1" source="j8gw7dnLNOPa8KJu4PWc-3" target="BBU3DSzOWEY-UXr2ZPLk-60" edge="1">
          <mxGeometry relative="1" as="geometry" />
        </mxCell>
        <mxCell id="BBU3DSzOWEY-UXr2ZPLk-66" style="edgeStyle=orthogonalEdgeStyle;rounded=0;orthogonalLoop=1;jettySize=auto;html=1;exitX=0.5;exitY=1;exitDx=0;exitDy=0;exitPerimeter=0;entryX=0.342;entryY=0.32;entryDx=0;entryDy=0;entryPerimeter=0;strokeColor=#121212;endArrow=oval;endFill=1;" parent="1" source="j8gw7dnLNOPa8KJu4PWc-3" target="BBU3DSzOWEY-UXr2ZPLk-65" edge="1">
          <mxGeometry relative="1" as="geometry" />
        </mxCell>
        <mxCell id="BBU3DSzOWEY-UXr2ZPLk-74" style="edgeStyle=orthogonalEdgeStyle;rounded=0;orthogonalLoop=1;jettySize=auto;html=1;exitX=0.5;exitY=1;exitDx=0;exitDy=0;exitPerimeter=0;strokeColor=#121212;endArrow=oval;endFill=1;" parent="1" source="j8gw7dnLNOPa8KJu4PWc-3" target="BBU3DSzOWEY-UXr2ZPLk-65" edge="1">
          <mxGeometry relative="1" as="geometry" />
        </mxCell>
        <mxCell id="j8gw7dnLNOPa8KJu4PWc-3" value="" style="shape=mxgraph.cisco.switches.layer_3_switch;sketch=0;html=1;pointerEvents=1;dashed=0;fillColor=#036897;strokeColor=#ffffff;strokeWidth=2;verticalLabelPosition=bottom;verticalAlign=top;align=center;outlineConnect=0;" parent="1" vertex="1">
          <mxGeometry x="589" y="420" width="64" height="64" as="geometry" />
        </mxCell>
        <mxCell id="j8gw7dnLNOPa8KJu4PWc-6" value="" style="aspect=fixed;html=1;points=[];align=center;image;fontSize=12;image=img/lib/azure2/networking/Azure_Firewall_Manager.svg;" parent="1" vertex="1">
          <mxGeometry x="586" y="330" width="70" height="60" as="geometry" />
        </mxCell>
        <mxCell id="j8gw7dnLNOPa8KJu4PWc-8" style="rounded=0;orthogonalLoop=1;jettySize=auto;html=1;endArrow=oval;endFill=1;exitX=0.602;exitY=0.998;exitDx=0;exitDy=0;exitPerimeter=0;" parent="1" source="j8gw7dnLNOPa8KJu4PWc-1" target="j8gw7dnLNOPa8KJu4PWc-6" edge="1">
          <mxGeometry relative="1" as="geometry">
            <mxPoint x="610" y="280" as="sourcePoint" />
            <mxPoint x="610.98" y="351.2" as="targetPoint" />
          </mxGeometry>
        </mxCell>
        <mxCell id="j8gw7dnLNOPa8KJu4PWc-10" style="edgeStyle=none;rounded=0;orthogonalLoop=1;jettySize=auto;html=1;entryX=0.5;entryY=0;entryDx=0;entryDy=0;entryPerimeter=0;endArrow=oval;endFill=1;" parent="1" source="j8gw7dnLNOPa8KJu4PWc-6" target="j8gw7dnLNOPa8KJu4PWc-3" edge="1">
          <mxGeometry relative="1" as="geometry">
            <mxPoint x="631" y="494" as="sourcePoint" />
            <mxPoint x="631" y="570.0000000000001" as="targetPoint" />
          </mxGeometry>
        </mxCell>
        <mxCell id="j8gw7dnLNOPa8KJu4PWc-11" value="GE1/0/48&lt;br&gt;10.1.255.2" style="text;whiteSpace=wrap;html=1;" parent="1" vertex="1">
          <mxGeometry x="656" y="410" width="80" height="40" as="geometry" />
        </mxCell>
        <mxCell id="j8gw7dnLNOPa8KJu4PWc-12" value="GE1/0/11&lt;br&gt;10.1.255.1" style="text;whiteSpace=wrap;html=1;" parent="1" vertex="1">
          <mxGeometry x="656" y="350" width="60" height="50" as="geometry" />
        </mxCell>
        <mxCell id="j8gw7dnLNOPa8KJu4PWc-45" style="rounded=0;orthogonalLoop=1;jettySize=auto;html=1;exitX=1;exitY=0;exitDx=0;exitDy=0;exitPerimeter=0;entryX=0;entryY=0;entryDx=0;entryDy=0;entryPerimeter=0;endArrow=oval;endFill=1;strokeColor=#FF0000;" parent="1" source="j8gw7dnLNOPa8KJu4PWc-17" target="j8gw7dnLNOPa8KJu4PWc-44" edge="1">
          <mxGeometry relative="1" as="geometry" />
        </mxCell>
        <mxCell id="j8gw7dnLNOPa8KJu4PWc-46" style="rounded=0;orthogonalLoop=1;jettySize=auto;html=1;exitX=1;exitY=0.5;exitDx=0;exitDy=0;exitPerimeter=0;entryX=0;entryY=0.5;entryDx=0;entryDy=0;entryPerimeter=0;endArrow=oval;endFill=1;strokeColor=#FF0000;startArrow=none;" parent="1" target="j8gw7dnLNOPa8KJu4PWc-44" edge="1">
          <mxGeometry relative="1" as="geometry">
            <mxPoint x="1332" y="600" as="sourcePoint" />
          </mxGeometry>
        </mxCell>
        <mxCell id="j8gw7dnLNOPa8KJu4PWc-47" style="edgeStyle=none;rounded=0;orthogonalLoop=1;jettySize=auto;html=1;exitX=1;exitY=1;exitDx=0;exitDy=0;exitPerimeter=0;entryX=0;entryY=1;entryDx=0;entryDy=0;entryPerimeter=0;endArrow=oval;endFill=1;fillColor=#1ba1e2;strokeColor=#006EAF;" parent="1" source="j8gw7dnLNOPa8KJu4PWc-17" target="j8gw7dnLNOPa8KJu4PWc-44" edge="1">
          <mxGeometry relative="1" as="geometry" />
        </mxCell>
        <mxCell id="BBU3DSzOWEY-UXr2ZPLk-42" style="edgeStyle=orthogonalEdgeStyle;rounded=0;orthogonalLoop=1;jettySize=auto;html=1;exitX=1;exitY=0.5;exitDx=0;exitDy=0;exitPerimeter=0;entryX=0;entryY=0.5;entryDx=0;entryDy=0;entryPerimeter=0;endArrow=oval;endFill=1;strokeColor=#de1717;" parent="1" source="j8gw7dnLNOPa8KJu4PWc-17" target="j8gw7dnLNOPa8KJu4PWc-44" edge="1">
          <mxGeometry relative="1" as="geometry" />
        </mxCell>
        <mxCell id="j8gw7dnLNOPa8KJu4PWc-17" value="" style="shape=mxgraph.cisco.switches.workgroup_switch;sketch=0;html=1;pointerEvents=1;dashed=0;fillColor=#036897;strokeColor=#ffffff;strokeWidth=2;verticalLabelPosition=bottom;verticalAlign=top;align=center;outlineConnect=0;points=[[0,0,0,0,0],[0,0.5,0,0,0],[0,1,0,0,0],[0.5,0,0,0,0],[0.5,1,0,0,0],[1,0,0,0,0],[1,0.5,0,0,0],[1,1,0,0,0]];" parent="1" vertex="1">
          <mxGeometry x="1084.5" y="580" width="91" height="40" as="geometry" />
        </mxCell>
        <mxCell id="j8gw7dnLNOPa8KJu4PWc-18" value="b2f-qiantai-24p&lt;br&gt;10.1.0.21" style="text;whiteSpace=wrap;html=1;" parent="1" vertex="1">
          <mxGeometry x="180" y="630" width="100" height="40" as="geometry" />
        </mxCell>
        <mxCell id="j8gw7dnLNOPa8KJu4PWc-19" value="GE1/0/1" style="text;whiteSpace=wrap;html=1;" parent="1" vertex="1">
          <mxGeometry x="210" y="510" width="80" height="30" as="geometry" />
        </mxCell>
        <mxCell id="j8gw7dnLNOPa8KJu4PWc-20" value="GE1/0/28" style="text;whiteSpace=wrap;html=1;" parent="1" vertex="1">
          <mxGeometry x="180" y="560" width="70" height="40" as="geometry" />
        </mxCell>
        <mxCell id="j8gw7dnLNOPa8KJu4PWc-22" value="b2f-office-24p&lt;br&gt;10.1.0.23" style="text;whiteSpace=wrap;html=1;" parent="1" vertex="1">
          <mxGeometry x="305" y="615" width="80" height="40" as="geometry" />
        </mxCell>
        <mxCell id="j8gw7dnLNOPa8KJu4PWc-23" value="GE1/0/2" style="text;whiteSpace=wrap;html=1;" parent="1" vertex="1">
          <mxGeometry x="380" y="510" width="80" height="40" as="geometry" />
        </mxCell>
        <mxCell id="j8gw7dnLNOPa8KJu4PWc-25" value="GE1/0/28" style="text;whiteSpace=wrap;html=1;" parent="1" vertex="1">
          <mxGeometry x="310" y="560" width="70" height="40" as="geometry" />
        </mxCell>
        <mxCell id="j8gw7dnLNOPa8KJu4PWc-28" value="ubi-core-s5560x&lt;br&gt;10.1.0.1" style="text;whiteSpace=wrap;html=1;" parent="1" vertex="1">
          <mxGeometry x="499" y="450" width="90" height="35" as="geometry" />
        </mxCell>
        <mxCell id="j8gw7dnLNOPa8KJu4PWc-26" value="b3f-office01-24&lt;br&gt;10.1.0.30" style="text;whiteSpace=wrap;html=1;" parent="1" vertex="1">
          <mxGeometry x="409" y="615" width="90" height="40" as="geometry" />
        </mxCell>
        <mxCell id="j8gw7dnLNOPa8KJu4PWc-29" value="UBI-Filewall-01" style="text;whiteSpace=wrap;html=1;" parent="1" vertex="1">
          <mxGeometry x="520" y="355" width="110" height="40" as="geometry" />
        </mxCell>
        <mxCell id="j8gw7dnLNOPa8KJu4PWc-32" value="b2f-qiantai-8P&lt;br&gt;10.1.0.22" style="text;whiteSpace=wrap;html=1;" parent="1" vertex="1">
          <mxGeometry x="200" y="750" width="110" height="40" as="geometry" />
        </mxCell>
        <mxCell id="j8gw7dnLNOPa8KJu4PWc-33" value="GE1/0/27" style="text;whiteSpace=wrap;html=1;" parent="1" vertex="1">
          <mxGeometry x="250" y="620" width="80" height="40" as="geometry" />
        </mxCell>
        <mxCell id="j8gw7dnLNOPa8KJu4PWc-34" value="GE1/0/8" style="text;whiteSpace=wrap;html=1;" parent="1" vertex="1">
          <mxGeometry x="190" y="680" width="60" height="40" as="geometry" />
        </mxCell>
        <mxCell id="j8gw7dnLNOPa8KJu4PWc-44" value="" style="shape=mxgraph.cisco.switches.workgroup_switch;sketch=0;html=1;pointerEvents=1;dashed=0;fillColor=#036897;strokeColor=#ffffff;strokeWidth=2;verticalLabelPosition=bottom;verticalAlign=top;align=center;outlineConnect=0;points=[[0,0,0,0,0],[0,0.5,0,0,0],[0,1,0,0,0],[0.5,0,0,0,0],[0.5,1,0,0,0],[1,0,0,0,0],[1,0.5,0,0,0],[1,1,0,0,0]];" parent="1" vertex="1">
          <mxGeometry x="1249" y="580" width="91" height="40" as="geometry" />
        </mxCell>
        <mxCell id="j8gw7dnLNOPa8KJu4PWc-48" value="a4f-chanxian01-24&lt;br&gt;10.1.0.42" style="text;whiteSpace=wrap;html=1;" parent="1" vertex="1">
          <mxGeometry x="1139" y="630" width="130" height="40" as="geometry" />
        </mxCell>
        <mxCell id="j8gw7dnLNOPa8KJu4PWc-50" value="GE1/0/20" style="text;whiteSpace=wrap;html=1;" parent="1" vertex="1">
          <mxGeometry x="1090" y="615" width="70" height="35" as="geometry" />
        </mxCell>
        <mxCell id="j8gw7dnLNOPa8KJu4PWc-51" value="GE2/0/20" style="text;whiteSpace=wrap;html=1;" parent="1" vertex="1">
          <mxGeometry x="1249" y="610" width="61" height="30" as="geometry" />
        </mxCell>
        <mxCell id="BBU3DSzOWEY-UXr2ZPLk-1" value="GE1/0/24" style="text;whiteSpace=wrap;html=1;" parent="1" vertex="1">
          <mxGeometry x="450" y="560" width="70" height="40" as="geometry" />
        </mxCell>
        <mxCell id="BBU3DSzOWEY-UXr2ZPLk-2" value="GE1/0/3" style="text;whiteSpace=wrap;html=1;" parent="1" vertex="1">
          <mxGeometry x="465" y="510" width="55" height="30" as="geometry" />
        </mxCell>
        <mxCell id="BBU3DSzOWEY-UXr2ZPLk-6" value="b3f-office02-24p&lt;br&gt;10.1.0.31" style="text;whiteSpace=wrap;html=1;" parent="1" vertex="1">
          <mxGeometry x="586" y="620" width="90" height="30" as="geometry" />
        </mxCell>
        <mxCell id="BBU3DSzOWEY-UXr2ZPLk-8" value="GE1/0/28" style="text;whiteSpace=wrap;html=1;" parent="1" vertex="1">
          <mxGeometry x="583" y="560" width="57" height="30" as="geometry" />
        </mxCell>
        <mxCell id="BBU3DSzOWEY-UXr2ZPLk-10" value="GE1/0/4" style="text;whiteSpace=wrap;html=1;" parent="1" vertex="1">
          <mxGeometry x="573" y="510" width="57" height="40" as="geometry" />
        </mxCell>
        <mxCell id="BBU3DSzOWEY-UXr2ZPLk-13" value="GE1/0/5" style="text;whiteSpace=wrap;html=1;" parent="1" vertex="1">
          <mxGeometry x="721" y="510" width="80" height="40" as="geometry" />
        </mxCell>
        <mxCell id="BBU3DSzOWEY-UXr2ZPLk-14" value="GE1/0/24" style="text;whiteSpace=wrap;html=1;" parent="1" vertex="1">
          <mxGeometry x="726" y="560" width="70" height="40" as="geometry" />
        </mxCell>
        <mxCell id="BBU3DSzOWEY-UXr2ZPLk-15" value="b6f-office01-24&lt;br&gt;10.1.0.60" style="text;whiteSpace=wrap;html=1;" parent="1" vertex="1">
          <mxGeometry x="716" y="620" width="90" height="30" as="geometry" />
        </mxCell>
        <mxCell id="BBU3DSzOWEY-UXr2ZPLk-25" value="GE1/0/6" style="text;whiteSpace=wrap;html=1;" parent="1" vertex="1">
          <mxGeometry x="840" y="510" width="60" height="30" as="geometry" />
        </mxCell>
        <mxCell id="BBU3DSzOWEY-UXr2ZPLk-26" value="GE1/0/28" style="text;whiteSpace=wrap;html=1;" parent="1" vertex="1">
          <mxGeometry x="850" y="560" width="60" height="30" as="geometry" />
        </mxCell>
        <mxCell id="BBU3DSzOWEY-UXr2ZPLk-27" value="b6f-office02-24p&lt;br&gt;10.1.0.61" style="text;whiteSpace=wrap;html=1;" parent="1" vertex="1">
          <mxGeometry x="830" y="620" width="120" height="40" as="geometry" />
        </mxCell>
        <mxCell id="BBU3DSzOWEY-UXr2ZPLk-28" value="b4f-office01-24&lt;br&gt;10.1.0.40" style="text;whiteSpace=wrap;html=1;" parent="1" vertex="1">
          <mxGeometry x="930" y="620" width="90" height="30" as="geometry" />
        </mxCell>
        <mxCell id="BBU3DSzOWEY-UXr2ZPLk-29" value="GE1/0/23" style="text;whiteSpace=wrap;html=1;" parent="1" vertex="1">
          <mxGeometry x="940" y="555" width="50" height="26" as="geometry" />
        </mxCell>
        <mxCell id="BBU3DSzOWEY-UXr2ZPLk-30" value="GE1/0/24" style="text;whiteSpace=wrap;html=1;" parent="1" vertex="1">
          <mxGeometry x="1010" y="555" width="70" height="40" as="geometry" />
        </mxCell>
        <mxCell id="BBU3DSzOWEY-UXr2ZPLk-34" value="GE1/0/24" style="text;whiteSpace=wrap;html=1;" parent="1" vertex="1">
          <mxGeometry x="1060" y="530" width="51" height="45" as="geometry" />
        </mxCell>
        <mxCell id="BBU3DSzOWEY-UXr2ZPLk-35" value="GE2/0/24" style="text;whiteSpace=wrap;html=1;" parent="1" vertex="1">
          <mxGeometry x="1229" y="535" width="40" height="15" as="geometry" />
        </mxCell>
        <mxCell id="BBU3DSzOWEY-UXr2ZPLk-36" value="GE1/0/9" style="text;whiteSpace=wrap;html=1;" parent="1" vertex="1">
          <mxGeometry x="1055.5" y="484" width="80" height="40" as="geometry" />
        </mxCell>
        <mxCell id="BBU3DSzOWEY-UXr2ZPLk-37" value="GE1/0/10" style="text;whiteSpace=wrap;html=1;" parent="1" vertex="1">
          <mxGeometry x="1229" y="484" width="80" height="40" as="geometry" />
        </mxCell>
        <mxCell id="BBU3DSzOWEY-UXr2ZPLk-38" value="GE1/0/7" style="text;whiteSpace=wrap;html=1;" parent="1" vertex="1">
          <mxGeometry x="930" y="510" width="50" height="30" as="geometry" />
        </mxCell>
        <mxCell id="BBU3DSzOWEY-UXr2ZPLk-39" value="GE1/0/8" style="text;whiteSpace=wrap;html=1;" parent="1" vertex="1">
          <mxGeometry x="1000" y="510" width="60" height="30" as="geometry" />
        </mxCell>
        <mxCell id="BBU3DSzOWEY-UXr2ZPLk-43" value="" style="shape=mxgraph.cisco.switches.workgroup_switch;sketch=0;html=1;pointerEvents=1;dashed=0;fillColor=#036897;strokeColor=#ffffff;strokeWidth=2;verticalLabelPosition=bottom;verticalAlign=top;align=center;outlineConnect=0;" parent="1" vertex="1">
          <mxGeometry x="200" y="700" width="90" height="40" as="geometry" />
        </mxCell>
        <mxCell id="BBU3DSzOWEY-UXr2ZPLk-49" value="" style="shape=mxgraph.cisco.switches.workgroup_switch;sketch=0;html=1;pointerEvents=1;dashed=0;fillColor=#036897;strokeColor=#ffffff;strokeWidth=2;verticalLabelPosition=bottom;verticalAlign=top;align=center;outlineConnect=0;" parent="1" vertex="1">
          <mxGeometry x="330" y="580" width="90" height="40" as="geometry" />
        </mxCell>
        <mxCell id="BBU3DSzOWEY-UXr2ZPLk-83" style="edgeStyle=none;rounded=0;orthogonalLoop=1;jettySize=auto;html=1;exitX=0.5;exitY=0.98;exitDx=0;exitDy=0;exitPerimeter=0;strokeColor=#121212;endArrow=oval;endFill=1;" parent="1" source="BBU3DSzOWEY-UXr2ZPLk-51" target="BBU3DSzOWEY-UXr2ZPLk-82" edge="1">
          <mxGeometry relative="1" as="geometry" />
        </mxCell>
        <mxCell id="BBU3DSzOWEY-UXr2ZPLk-51" value="" style="shape=mxgraph.cisco.switches.workgroup_switch;sketch=0;html=1;pointerEvents=1;dashed=0;fillColor=#036897;strokeColor=#ffffff;strokeWidth=2;verticalLabelPosition=bottom;verticalAlign=top;align=center;outlineConnect=0;" parent="1" vertex="1">
          <mxGeometry x="465" y="580" width="90" height="40" as="geometry" />
        </mxCell>
        <mxCell id="BBU3DSzOWEY-UXr2ZPLk-53" value="" style="shape=mxgraph.cisco.switches.workgroup_switch;sketch=0;html=1;pointerEvents=1;dashed=0;fillColor=#036897;strokeColor=#ffffff;strokeWidth=2;verticalLabelPosition=bottom;verticalAlign=top;align=center;outlineConnect=0;" parent="1" vertex="1">
          <mxGeometry x="600" y="580" width="90" height="40" as="geometry" />
        </mxCell>
        <mxCell id="BBU3DSzOWEY-UXr2ZPLk-55" value="" style="shape=mxgraph.cisco.switches.workgroup_switch;sketch=0;html=1;pointerEvents=1;dashed=0;fillColor=#036897;strokeColor=#ffffff;strokeWidth=2;verticalLabelPosition=bottom;verticalAlign=top;align=center;outlineConnect=0;" parent="1" vertex="1">
          <mxGeometry x="735" y="580" width="90" height="40" as="geometry" />
        </mxCell>
        <mxCell id="BBU3DSzOWEY-UXr2ZPLk-57" value="" style="shape=mxgraph.cisco.switches.workgroup_switch;sketch=0;html=1;pointerEvents=1;dashed=0;fillColor=#036897;strokeColor=#ffffff;strokeWidth=2;verticalLabelPosition=bottom;verticalAlign=top;align=center;outlineConnect=0;" parent="1" vertex="1">
          <mxGeometry x="860" y="580" width="90" height="40" as="geometry" />
        </mxCell>
        <mxCell id="BBU3DSzOWEY-UXr2ZPLk-87" style="edgeStyle=orthogonalEdgeStyle;rounded=0;orthogonalLoop=1;jettySize=auto;html=1;exitX=0.5;exitY=0.98;exitDx=0;exitDy=0;exitPerimeter=0;strokeColor=#121212;endArrow=oval;endFill=1;" parent="1" source="BBU3DSzOWEY-UXr2ZPLk-60" target="BBU3DSzOWEY-UXr2ZPLk-85" edge="1">
          <mxGeometry relative="1" as="geometry" />
        </mxCell>
        <mxCell id="BBU3DSzOWEY-UXr2ZPLk-92" style="edgeStyle=orthogonalEdgeStyle;rounded=0;orthogonalLoop=1;jettySize=auto;html=1;exitX=0.5;exitY=0.98;exitDx=0;exitDy=0;exitPerimeter=0;entryX=0.5;entryY=0;entryDx=0;entryDy=0;entryPerimeter=0;strokeColor=#121212;endArrow=oval;endFill=1;" parent="1" source="BBU3DSzOWEY-UXr2ZPLk-60" target="BBU3DSzOWEY-UXr2ZPLk-86" edge="1">
          <mxGeometry relative="1" as="geometry" />
        </mxCell>
        <mxCell id="BBU3DSzOWEY-UXr2ZPLk-60" value="" style="shape=mxgraph.cisco.switches.workgroup_switch;sketch=0;html=1;pointerEvents=1;dashed=0;fillColor=#036897;strokeColor=#ffffff;strokeWidth=2;verticalLabelPosition=bottom;verticalAlign=top;align=center;outlineConnect=0;" parent="1" vertex="1">
          <mxGeometry x="968" y="580" width="90" height="40" as="geometry" />
        </mxCell>
        <mxCell id="BBU3DSzOWEY-UXr2ZPLk-108" style="edgeStyle=orthogonalEdgeStyle;rounded=0;orthogonalLoop=1;jettySize=auto;html=1;exitX=0.25;exitY=1;exitDx=0;exitDy=0;strokeColor=#121212;endArrow=oval;endFill=1;" parent="1" source="BBU3DSzOWEY-UXr2ZPLk-63" target="BBU3DSzOWEY-UXr2ZPLk-106" edge="1">
          <mxGeometry relative="1" as="geometry" />
        </mxCell>
        <mxCell id="BBU3DSzOWEY-UXr2ZPLk-116" style="edgeStyle=orthogonalEdgeStyle;rounded=0;orthogonalLoop=1;jettySize=auto;html=1;exitX=0.75;exitY=1;exitDx=0;exitDy=0;strokeColor=#121212;endArrow=oval;endFill=1;" parent="1" source="BBU3DSzOWEY-UXr2ZPLk-63" target="BBU3DSzOWEY-UXr2ZPLk-107" edge="1">
          <mxGeometry relative="1" as="geometry" />
        </mxCell>
        <mxCell id="BBU3DSzOWEY-UXr2ZPLk-63" value="" style="rounded=0;whiteSpace=wrap;html=1;fillColor=none;dashed=1;" parent="1" vertex="1">
          <mxGeometry x="1080" y="550" width="260" height="110" as="geometry" />
        </mxCell>
        <mxCell id="BBU3DSzOWEY-UXr2ZPLk-65" value="" style="shape=mxgraph.cisco.switches.workgroup_switch;sketch=0;html=1;pointerEvents=1;dashed=0;fillColor=#036897;strokeColor=#ffffff;strokeWidth=2;verticalLabelPosition=bottom;verticalAlign=top;align=center;outlineConnect=0;" parent="1" vertex="1">
          <mxGeometry x="1380" y="581" width="90" height="40" as="geometry" />
        </mxCell>
        <mxCell id="BBU3DSzOWEY-UXr2ZPLk-67" value="GE1/0/15" style="text;whiteSpace=wrap;html=1;" parent="1" vertex="1">
          <mxGeometry x="1360" y="560" width="70" height="40" as="geometry" />
        </mxCell>
        <mxCell id="BBU3DSzOWEY-UXr2ZPLk-68" value="b1f-office-16&lt;br&gt;10.1.0.24" style="text;whiteSpace=wrap;html=1;" parent="1" vertex="1">
          <mxGeometry x="1370" y="620" width="90" height="40" as="geometry" />
        </mxCell>
        <mxCell id="BBU3DSzOWEY-UXr2ZPLk-69" value="GE1/0/11" style="text;whiteSpace=wrap;html=1;" parent="1" vertex="1">
          <mxGeometry x="1355" y="510" width="80" height="40" as="geometry" />
        </mxCell>
        <mxCell id="BBU3DSzOWEY-UXr2ZPLk-75" value="GE1/0/16" style="text;whiteSpace=wrap;html=1;" parent="1" vertex="1">
          <mxGeometry x="1435" y="560" width="70" height="30" as="geometry" />
        </mxCell>
        <mxCell id="BBU3DSzOWEY-UXr2ZPLk-76" value="GE1/0/12" style="text;whiteSpace=wrap;html=1;" parent="1" vertex="1">
          <mxGeometry x="1430" y="510" width="70" height="30" as="geometry" />
        </mxCell>
        <mxCell id="BBU3DSzOWEY-UXr2ZPLk-82" value="" style="shape=mxgraph.cisco.switches.workgroup_switch;sketch=0;html=1;pointerEvents=1;dashed=0;fillColor=#036897;strokeColor=#ffffff;strokeWidth=2;verticalLabelPosition=bottom;verticalAlign=top;align=center;outlineConnect=0;" parent="1" vertex="1">
          <mxGeometry x="465" y="700" width="90" height="40" as="geometry" />
        </mxCell>
        <mxCell id="BBU3DSzOWEY-UXr2ZPLk-84" value="H3C 桌面傻瓜交换机" style="text;whiteSpace=wrap;html=1;" parent="1" vertex="1">
          <mxGeometry x="465" y="750" width="60" height="40" as="geometry" />
        </mxCell>
        <mxCell id="BBU3DSzOWEY-UXr2ZPLk-85" value="" style="shape=mxgraph.cisco.switches.workgroup_switch;sketch=0;html=1;pointerEvents=1;dashed=0;fillColor=#036897;strokeColor=#ffffff;strokeWidth=2;verticalLabelPosition=bottom;verticalAlign=top;align=center;outlineConnect=0;" parent="1" vertex="1">
          <mxGeometry x="910" y="700" width="90" height="40" as="geometry" />
        </mxCell>
        <mxCell id="BBU3DSzOWEY-UXr2ZPLk-86" value="" style="shape=mxgraph.cisco.switches.workgroup_switch;sketch=0;html=1;pointerEvents=1;dashed=0;fillColor=#036897;strokeColor=#ffffff;strokeWidth=2;verticalLabelPosition=bottom;verticalAlign=top;align=center;outlineConnect=0;" parent="1" vertex="1">
          <mxGeometry x="1020" y="700" width="90" height="40" as="geometry" />
        </mxCell>
        <mxCell id="BBU3DSzOWEY-UXr2ZPLk-88" value="c4f-chanxian03-24&lt;br&gt;10.1.0.44" style="text;whiteSpace=wrap;html=1;" parent="1" vertex="1">
          <mxGeometry x="850" y="740" width="130" height="40" as="geometry" />
        </mxCell>
        <mxCell id="BBU3DSzOWEY-UXr2ZPLk-89" value="GE1/0/23" style="text;whiteSpace=wrap;html=1;" parent="1" vertex="1">
          <mxGeometry x="890" y="680" width="70" height="40" as="geometry" />
        </mxCell>
        <mxCell id="BBU3DSzOWEY-UXr2ZPLk-90" value="GE1/0/21" style="text;whiteSpace=wrap;html=1;" parent="1" vertex="1">
          <mxGeometry x="950" y="655" width="80" height="40" as="geometry" />
        </mxCell>
        <mxCell id="BBU3DSzOWEY-UXr2ZPLk-91" value="b4f-office02-8p&lt;br&gt;10.1.0.41" style="text;whiteSpace=wrap;html=1;" parent="1" vertex="1">
          <mxGeometry x="975" y="740" width="110" height="40" as="geometry" />
        </mxCell>
        <mxCell id="BBU3DSzOWEY-UXr2ZPLk-93" value="GE1/0/8" style="text;whiteSpace=wrap;html=1;" parent="1" vertex="1">
          <mxGeometry x="1015" y="680" width="60" height="40" as="geometry" />
        </mxCell>
        <mxCell id="BBU3DSzOWEY-UXr2ZPLk-94" value="GE1/0/22" style="text;whiteSpace=wrap;html=1;" parent="1" vertex="1">
          <mxGeometry x="1020" y="640" width="60" height="30" as="geometry" />
        </mxCell>
        <mxCell id="BBU3DSzOWEY-UXr2ZPLk-101" value="GE1/0/22" style="text;whiteSpace=wrap;html=1;" parent="1" vertex="1">
          <mxGeometry x="1130" y="580" width="70" height="30" as="geometry" />
        </mxCell>
        <mxCell id="BBU3DSzOWEY-UXr2ZPLk-102" value="GE2/0/22" style="text;whiteSpace=wrap;html=1;" parent="1" vertex="1">
          <mxGeometry x="1229" y="580" width="60" height="30" as="geometry" />
        </mxCell>
        <mxCell id="BBU3DSzOWEY-UXr2ZPLk-103" value="GE1/0/23" style="text;whiteSpace=wrap;html=1;" parent="1" vertex="1">
          <mxGeometry x="1130" y="555" width="60" height="30" as="geometry" />
        </mxCell>
        <mxCell id="BBU3DSzOWEY-UXr2ZPLk-104" value="GE2/0/23" style="text;whiteSpace=wrap;html=1;" parent="1" vertex="1">
          <mxGeometry x="1229" y="555" width="60" height="30" as="geometry" />
        </mxCell>
        <mxCell id="BBU3DSzOWEY-UXr2ZPLk-122" style="edgeStyle=orthogonalEdgeStyle;rounded=0;orthogonalLoop=1;jettySize=auto;html=1;exitX=0.5;exitY=0.98;exitDx=0;exitDy=0;exitPerimeter=0;strokeColor=#121212;endArrow=oval;endFill=1;" parent="1" source="BBU3DSzOWEY-UXr2ZPLk-106" target="BBU3DSzOWEY-UXr2ZPLk-120" edge="1">
          <mxGeometry relative="1" as="geometry" />
        </mxCell>
        <mxCell id="BBU3DSzOWEY-UXr2ZPLk-106" value="" style="shape=mxgraph.cisco.switches.workgroup_switch;sketch=0;html=1;pointerEvents=1;dashed=0;fillColor=#036897;strokeColor=#ffffff;strokeWidth=2;verticalLabelPosition=bottom;verticalAlign=top;align=center;outlineConnect=0;" parent="1" vertex="1">
          <mxGeometry x="1115" y="700" width="90" height="40" as="geometry" />
        </mxCell>
        <mxCell id="BBU3DSzOWEY-UXr2ZPLk-107" value="" style="shape=mxgraph.cisco.switches.workgroup_switch;sketch=0;html=1;pointerEvents=1;dashed=0;fillColor=#036897;strokeColor=#ffffff;strokeWidth=2;verticalLabelPosition=bottom;verticalAlign=top;align=center;outlineConnect=0;" parent="1" vertex="1">
          <mxGeometry x="1240" y="700" width="90" height="40" as="geometry" />
        </mxCell>
        <mxCell id="BBU3DSzOWEY-UXr2ZPLk-109" value="c4f-chanxian03-24&lt;br&gt;10.1.0.44" style="text;whiteSpace=wrap;html=1;" parent="1" vertex="1">
          <mxGeometry x="1099" y="740" width="130" height="40" as="geometry" />
        </mxCell>
        <mxCell id="BBU3DSzOWEY-UXr2ZPLk-112" value="GE1/0/24" style="text;whiteSpace=wrap;html=1;" parent="1" vertex="1">
          <mxGeometry x="1099.5" y="680" width="61" height="30" as="geometry" />
        </mxCell>
        <mxCell id="BBU3DSzOWEY-UXr2ZPLk-113" value="GE1/0/21" style="text;whiteSpace=wrap;html=1;" parent="1" vertex="1">
          <mxGeometry x="1090" y="655" width="60" height="30" as="geometry" />
        </mxCell>
        <mxCell id="BBU3DSzOWEY-UXr2ZPLk-117" value="a4f-chanxian02-8p&lt;br&gt;10.1.0.43" style="text;whiteSpace=wrap;html=1;" parent="1" vertex="1">
          <mxGeometry x="1214.5" y="740" width="130" height="40" as="geometry" />
        </mxCell>
        <mxCell id="BBU3DSzOWEY-UXr2ZPLk-118" value="GE1/0/8" style="text;whiteSpace=wrap;html=1;" parent="1" vertex="1">
          <mxGeometry x="1240" y="680" width="50" height="30" as="geometry" />
        </mxCell>
        <mxCell id="BBU3DSzOWEY-UXr2ZPLk-119" value="GE2/0/21" style="text;whiteSpace=wrap;html=1;" parent="1" vertex="1">
          <mxGeometry x="1219" y="655" width="60" height="30" as="geometry" />
        </mxCell>
        <mxCell id="BBU3DSzOWEY-UXr2ZPLk-120" value="" style="shape=mxgraph.cisco.switches.workgroup_switch;sketch=0;html=1;pointerEvents=1;dashed=0;fillColor=#036897;strokeColor=#ffffff;strokeWidth=2;verticalLabelPosition=bottom;verticalAlign=top;align=center;outlineConnect=0;" parent="1" vertex="1">
          <mxGeometry x="1120" y="830" width="90" height="40" as="geometry" />
        </mxCell>
        <mxCell id="BBU3DSzOWEY-UXr2ZPLk-121" value="c4f-chanxian04-24p&lt;br&gt;10.1.0.45" style="text;whiteSpace=wrap;html=1;" parent="1" vertex="1">
          <mxGeometry x="1090" y="870" width="140" height="40" as="geometry" />
        </mxCell>
        <mxCell id="BBU3DSzOWEY-UXr2ZPLk-123" value="GE1/0/28" style="text;whiteSpace=wrap;html=1;" parent="1" vertex="1">
          <mxGeometry x="1100.5" y="810" width="60" height="30" as="geometry" />
        </mxCell>
        <mxCell id="BBU3DSzOWEY-UXr2ZPLk-124" value="GE1/0/22" style="text;whiteSpace=wrap;html=1;" parent="1" vertex="1">
          <mxGeometry x="1099" y="770" width="60" height="30" as="geometry" />
        </mxCell>
      </root>
    </mxGraphModel>
  </diagram>
</mxfile>
